<?xml version="1.0" encoding="iso-8859-1"?>
<!-- Generator: Adobe Illustrator 18.1.1, SVG Export Plug-In . SVG Version: 6.00 Build 0)  -->
<svg xmlns="http://www.w3.org/2000/svg" xmlns:xlink="http://www.w3.org/1999/xlink" version="1.1" id="Capa_1" x="0px" y="0px" viewBox="0 0 612 612" style="enable-background:new 0 0 612 612;" xml:space="preserve" width="512px" height="512px">
<g>
	<path d="M608.13,33.616c-3.231-2.897-7.807-3.748-11.869-2.208L7.495,254.779c-4.228,1.604-7.138,5.512-7.465,10.021   c-0.327,4.506,1.989,8.796,5.94,10.994l189.432,105.361c3.709,2.061,8.258,1.937,11.849-0.331l141.442-89.344   c0,0-103.931,101.845-105.765,103.755s-4.249,3.665-4.249,8.239c0,5.433-0.006,166.203-0.006,166.203   c-0.021,4.721,2.817,8.99,7.18,10.791c1.436,0.592,2.941,0.88,4.433,0.88c3.049,0,6.045-1.202,8.27-3.456l97.714-98.997   l111.444,65.56c1.809,1.064,3.845,1.604,5.89,1.604c1.509,0,3.024-0.294,4.454-0.888c3.369-1.399,5.886-4.299,6.795-7.831   l126.78-492.172C612.714,40.964,611.365,36.508,608.13,33.616z" fill="#FFFFFF"/>
</g>
</svg>
