<?xml version="1.0" encoding="utf-8"?>
<!-- Generator: Adobe Illustrator 22.1.0, SVG Export Plug-In . SVG Version: 6.00 Build 0)  -->
<svg version="1.1" id="Layer_1" xmlns="http://www.w3.org/2000/svg" xmlns:xlink="http://www.w3.org/1999/xlink" x="0px" y="0px"
	 viewBox="0 0 22.2 20.7" style="enable-background:new 0 0 22.2 20.7;" xml:space="preserve">
<style type="text/css">
	.st0{fill:#8B8D99;}
</style>
<g id="Kt9Yeu_2_">
	<g id="Group_725" transform="translate(0)">
		<path id="Path_1439" class="st0" d="M22.2,14.4c0,0.1,0,0.3,0,0.4c-0.1,0.6-0.2,1.2-0.5,1.8c-0.6,1.5-1.8,2.7-3.2,3.4
			c-0.7,0.3-1.4,0.6-2.2,0.6c-1.3,0.2-2.6-0.1-3.8-0.7s-2.2-1.6-2.9-2.8c-0.4-0.7-0.6-1.5-0.7-2.3c-0.3-2.3,0.6-4.5,2.4-5.9
			c0.9-0.8,2-1.3,3.2-1.4c1.4-0.2,2.8,0,4.1,0.6c1.2,0.6,2.3,1.6,2.9,2.8c0.4,0.7,0.6,1.4,0.7,2.2c0,0.2,0,0.3,0,0.5v0.1
			C22.2,14,22.2,14.2,22.2,14.4z M15.5,8.9c-2.9,0-5.2,2.3-5.2,5.2s2.3,5.2,5.2,5.2c2.8,0,5.1-2.3,5.2-5.1s-2.2-5.2-5-5.3
			C15.6,8.9,15.6,8.9,15.5,8.9L15.5,8.9z"/>
		<path id="Path_1440" class="st0" d="M6.9,3H2.2C1.8,3,1.4,3.3,1.4,3.7l0,0V14c0,0.4,0.3,0.7,0.7,0.8l0,0h5.2
			c0.1,0.5,0.2,1,0.3,1.5H2.2c-1,0-1.8-0.6-2.1-1.5C0,14.5,0,14.3,0,14.1V3.7C0,3,0.3,2.3,0.9,1.9c0.4-0.3,0.8-0.4,1.3-0.4h3.6
			c0.1,0,0.1,0,0.1-0.1C6,1.1,6.1,0.9,6.3,0.7C6.8,0.2,7.3,0,7.9,0h5c0.7,0,1.4,0.4,1.7,1c0.1,0.1,0.1,0.3,0.2,0.4l0.1,0.1h3.6
			c1,0,1.8,0.6,2.1,1.5c0.1,0.2,0.1,0.4,0.1,0.6v4.1c0,0-0.1,0-0.1-0.1c-0.4-0.3-0.9-0.6-1.3-0.9l-0.1-0.1v-3c0-0.4-0.3-0.8-0.7-0.8
			l0,0h-4.6c-0.1,0-0.1,0-0.1-0.1c-0.2-0.4-0.3-0.7-0.5-1l-0.1-0.2c-0.1-0.1-0.2-0.2-0.3-0.2h-5c-0.2,0-0.4,0.1-0.5,0.3
			C7.3,2,7.2,2.3,7.1,2.5S7,2.8,6.9,3z"/>
		<path id="Path_1441" class="st0" d="M13.8,6.1c-0.2,0-0.4,0.1-0.5,0.1l-0.9,0.3c-0.1,0-0.1,0-0.2,0c-0.4-0.3-0.9-0.6-1.5-0.6
			c-1.6-0.2-3.1,1-3.3,2.6C7.3,9.3,7.5,10,8,10.7c0,0.1,0.1,0.1,0,0.2c-0.2,0.4-0.4,0.9-0.5,1.4c0,0,0,0,0,0.1C7,12,6.6,11.5,6.3,11
			C6,10.1,5.8,9.3,5.9,8.4c0.2-2.4,2.4-4.2,4.8-4C11.9,4.5,13,5.1,13.8,6.1L13.8,6.1z"/>
		<path id="Path_1442" class="st0" d="M3,5.9V4.4h1.5v1.5H3z"/>
		<path id="Path_1443" class="st0" d="M14.8,10.4h1.5v3h3v1.5h-3v3h-1.5v-3h-3v-1.5h3C14.8,13.4,14.8,10.4,14.8,10.4z"/>
	</g>
</g>
</svg>
