<?xml version="1.0" encoding="utf-8"?>
<!-- Generator: Adobe Illustrator 23.0.0, SVG Export Plug-In . SVG Version: 6.00 Build 0)  -->
<svg version="1.1" id="Logo_1_" xmlns="http://www.w3.org/2000/svg" xmlns:xlink="http://www.w3.org/1999/xlink" x="0px" y="0px"
	 viewBox="0 0 301.68 73.24" style="enable-background:new 0 0 301.68 73.24;" xml:space="preserve">
<style type="text/css">
	.st0{fill-rule:evenodd;clip-rule:evenodd;fill:#26AE61;}
	.st1{fill-rule:evenodd;clip-rule:evenodd;fill:#FFFFFF;}
</style>
<g id="Shape_1">
	<g>
		<path class="st0" d="M48.94,20.94L34.87,9.21L20.8,20.94L-0.01,0v53.26l34.88,19.98l34.88-19.98V0L48.94,20.94z M64.29,50.19
			L34.87,67.05L5.45,50.19V13.16l11.41,11.48l-5.68,4.74l3.54,4.07l20.15-16.82l20.15,16.82l3.54-4.07l-5.68-4.74l11.41-11.48V50.19
			z M32.14,33.01h5.46v-5.35h-5.46V33.01z"/>
	</g>
</g>
<g id="Real_Villa">
	<g>
		<path class="st1" d="M106.16,23.32c-0.05-0.13-0.03-0.2,0.08-0.23c1.22-0.61,2.17-1.52,2.85-2.71c0.68-1.2,1.03-2.6,1.03-4.2
			c0-1.63-0.33-3.07-0.99-4.32c-0.66-1.25-1.59-2.22-2.8-2.92c-1.21-0.7-2.59-1.05-4.17-1.05h-9.74c-0.13,0-0.23,0.04-0.32,0.13
			c-0.09,0.09-0.13,0.2-0.13,0.32v25.83c0,0.13,0.04,0.24,0.13,0.32c0.09,0.09,0.2,0.13,0.32,0.13h5.4c0.13,0,0.23-0.04,0.32-0.13
			c0.09-0.09,0.13-0.2,0.13-0.32V24.16c0-0.13,0.06-0.19,0.19-0.19h1.52c0.08,0,0.14,0.05,0.19,0.15l3.58,10.13
			c0.08,0.25,0.24,0.38,0.49,0.38h5.67c0.28,0,0.42-0.11,0.42-0.34c0-0.08-0.01-0.14-0.04-0.19L106.16,23.32z M103.09,18.35
			c-0.49,0.51-1.15,0.76-1.96,0.76h-2.66c-0.13,0-0.19-0.06-0.19-0.19V13.5c0-0.13,0.06-0.19,0.19-0.19h2.66
			c0.81,0,1.47,0.26,1.96,0.78c0.49,0.52,0.74,1.24,0.74,2.16C103.84,17.14,103.59,17.84,103.09,18.35z M132.18,7.88h-15.87
			c-0.13,0-0.23,0.04-0.32,0.13c-0.09,0.09-0.13,0.2-0.13,0.32v25.83c0,0.13,0.04,0.24,0.13,0.32c0.09,0.09,0.2,0.13,0.32,0.13
			h15.87c0.13,0,0.23-0.04,0.32-0.13c0.09-0.09,0.13-0.2,0.13-0.32v-4.51c0-0.13-0.04-0.24-0.13-0.32c-0.09-0.09-0.2-0.13-0.32-0.13
			h-9.82c-0.13,0-0.19-0.06-0.19-0.19v-4.93c0-0.13,0.06-0.19,0.19-0.19h5.94c0.13,0,0.23-0.04,0.32-0.13
			c0.09-0.09,0.13-0.2,0.13-0.32v-4.51c0-0.13-0.04-0.24-0.13-0.32c-0.09-0.09-0.2-0.13-0.32-0.13h-5.94
			c-0.13,0-0.19-0.06-0.19-0.19V13.5c0-0.13,0.06-0.19,0.19-0.19h9.82c0.13,0,0.23-0.04,0.32-0.13c0.09-0.09,0.13-0.2,0.13-0.32
			V8.34c0-0.13-0.04-0.24-0.13-0.32C132.42,7.93,132.31,7.88,132.18,7.88z M152.2,8.26c-0.08-0.25-0.25-0.38-0.53-0.38h-6.66
			c-0.28,0-0.46,0.13-0.53,0.38l-6.81,25.87c-0.08,0.33,0.05,0.5,0.38,0.5h5.59c0.28,0,0.44-0.14,0.49-0.42l0.76-3.36
			c0.02-0.1,0.09-0.15,0.19-0.15h6.43c0.1,0,0.16,0.05,0.19,0.15l0.76,3.36c0.05,0.28,0.22,0.42,0.49,0.42h5.67
			c0.28,0,0.42-0.11,0.42-0.34l-0.04-0.15L152.2,8.26z M150.45,25.75c-0.05,0.04-0.1,0.06-0.15,0.06h-4.07
			c-0.15,0-0.22-0.06-0.19-0.19l2.09-9.52c0.02-0.1,0.06-0.15,0.11-0.15c0.05,0,0.09,0.05,0.11,0.15l2.13,9.48
			C150.51,25.65,150.5,25.71,150.45,25.75z M180.89,29.21h-9.97c-0.13,0-0.19-0.06-0.19-0.19V8.34c0-0.13-0.04-0.24-0.13-0.32
			c-0.09-0.09-0.2-0.13-0.32-0.13h-5.4c-0.13,0-0.23,0.04-0.32,0.13c-0.09,0.09-0.13,0.2-0.13,0.32v25.83
			c0,0.13,0.04,0.24,0.13,0.32c0.09,0.09,0.2,0.13,0.32,0.13h16.02c0.13,0,0.23-0.04,0.32-0.13c0.09-0.09,0.13-0.2,0.13-0.32v-4.51
			c0-0.13-0.04-0.24-0.13-0.32C181.12,29.25,181.01,29.21,180.89,29.21z M216.2,7.88h-5.71c-0.3,0-0.47,0.14-0.49,0.42l-3.2,16.32
			c-0.03,0.08-0.06,0.11-0.11,0.11c-0.05,0-0.09-0.04-0.11-0.11L203.3,8.3c-0.05-0.28-0.22-0.42-0.49-0.42h-5.86
			c-0.28,0-0.42,0.11-0.42,0.34v0.15l6.54,25.87c0.08,0.25,0.25,0.38,0.53,0.38h5.86c0.28,0,0.46-0.13,0.53-0.38l6.62-25.87
			C216.69,8.05,216.55,7.88,216.2,7.88z M227.92,7.88h-5.4c-0.13,0-0.23,0.04-0.32,0.13c-0.09,0.09-0.13,0.2-0.13,0.32v25.83
			c0,0.13,0.04,0.24,0.13,0.32c0.09,0.09,0.2,0.13,0.32,0.13h5.4c0.13,0,0.23-0.04,0.32-0.13c0.09-0.09,0.13-0.2,0.13-0.32V8.34
			c0-0.13-0.04-0.24-0.13-0.32C228.15,7.93,228.05,7.88,227.92,7.88z M251.09,29.21h-9.97c-0.13,0-0.19-0.06-0.19-0.19V8.34
			c0-0.13-0.04-0.24-0.13-0.32c-0.09-0.09-0.2-0.13-0.32-0.13h-5.4c-0.13,0-0.23,0.04-0.32,0.13c-0.09,0.09-0.13,0.2-0.13,0.32
			v25.83c0,0.13,0.04,0.24,0.13,0.32c0.09,0.09,0.2,0.13,0.32,0.13h16.02c0.13,0,0.23-0.04,0.32-0.13c0.09-0.09,0.13-0.2,0.13-0.32
			v-4.51c0-0.13-0.04-0.24-0.13-0.32C251.33,29.25,251.22,29.21,251.09,29.21z M273.35,29.21h-9.97c-0.13,0-0.19-0.06-0.19-0.19
			V8.34c0-0.13-0.04-0.24-0.13-0.32c-0.09-0.09-0.2-0.13-0.32-0.13h-5.4c-0.13,0-0.23,0.04-0.32,0.13c-0.09,0.09-0.13,0.2-0.13,0.32
			v25.83c0,0.13,0.04,0.24,0.13,0.32c0.09,0.09,0.2,0.13,0.32,0.13h16.02c0.13,0,0.23-0.04,0.32-0.13c0.09-0.09,0.13-0.2,0.13-0.32
			v-4.51c0-0.13-0.04-0.24-0.13-0.32C273.59,29.25,273.48,29.21,273.35,29.21z M299.95,34.14l-6.81-25.87
			c-0.08-0.25-0.25-0.38-0.53-0.38h-6.66c-0.28,0-0.46,0.13-0.53,0.38l-6.81,25.87c-0.08,0.33,0.05,0.5,0.38,0.5h5.59
			c0.28,0,0.44-0.14,0.49-0.42l0.76-3.36c0.02-0.1,0.09-0.15,0.19-0.15h6.43c0.1,0,0.16,0.05,0.19,0.15l0.76,3.36
			c0.05,0.28,0.22,0.42,0.49,0.42h5.67c0.28,0,0.42-0.11,0.42-0.34L299.95,34.14z M291.39,25.75c-0.05,0.04-0.1,0.06-0.15,0.06
			h-4.07c-0.15,0-0.22-0.06-0.19-0.19l2.09-9.52c0.02-0.1,0.06-0.15,0.11-0.15c0.05,0,0.09,0.05,0.11,0.15l2.13,9.48
			C291.45,25.65,291.44,25.71,291.39,25.75z"/>
	</g>
</g>
<g id="Homes_that_match">
	<g>
		<path class="st1" d="M102.17,51.36h-5.89v-5.96h-3.02v14.72h3.02V53.8h5.89v6.31h3.02V45.39h-3.02V51.36z M118.39,50.33
			c-0.93-0.9-2.13-1.35-3.6-1.35c-1.03,0-1.94,0.23-2.72,0.7c-0.78,0.46-1.38,1.12-1.8,1.97c-0.42,0.85-0.62,1.82-0.62,2.9v0.13
			c0,1.74,0.47,3.11,1.4,4.12c0.94,1.01,2.19,1.52,3.76,1.52c1.57,0,2.82-0.51,3.75-1.52c0.93-1.01,1.4-2.36,1.4-4.04l-0.02-0.75
			C119.84,52.46,119.32,51.23,118.39,50.33z M116.46,57.14c-0.4,0.54-0.95,0.81-1.65,0.81c-0.72,0-1.28-0.27-1.67-0.83
			c-0.39-0.55-0.58-1.34-0.58-2.38c0-1.17,0.19-2.03,0.58-2.59c0.39-0.56,0.94-0.84,1.65-0.84c0.72,0,1.27,0.28,1.67,0.84
			c0.4,0.56,0.59,1.35,0.59,2.37C117.06,55.73,116.86,56.6,116.46,57.14z M136.34,48.97c-1.42,0-2.51,0.56-3.27,1.67
			c-0.52-1.11-1.49-1.67-2.89-1.67c-1.32,0-2.36,0.48-3.13,1.43l-0.09-1.22h-2.73v10.94h2.91v-7.73c0.37-0.69,0.97-1.03,1.79-1.03
			c0.6,0,1.02,0.14,1.27,0.42c0.25,0.28,0.37,0.74,0.37,1.37v6.96h2.91l-0.01-7.51c0.34-0.84,0.94-1.25,1.81-1.25
			c0.61,0,1.04,0.14,1.28,0.43c0.24,0.29,0.36,0.74,0.36,1.36v6.97h2.92v-6.98c0-1.39-0.29-2.43-0.87-3.12
			C138.4,49.32,137.52,48.97,136.34,48.97z M149.24,48.97c-0.99,0-1.88,0.23-2.65,0.7c-0.77,0.47-1.37,1.14-1.8,2
			c-0.42,0.87-0.63,1.85-0.63,2.95v0.28c0,1.64,0.5,2.95,1.5,3.93c1,0.98,2.3,1.48,3.9,1.48c0.91,0,1.73-0.17,2.48-0.52
			s1.34-0.83,1.77-1.45l-1.43-1.61c-0.63,0.82-1.51,1.22-2.63,1.22c-0.72,0-1.32-0.22-1.8-0.65c-0.47-0.43-0.76-1-0.85-1.72h6.93
			V54.4c0-1.73-0.43-3.07-1.28-4.01C151.9,49.44,150.73,48.97,149.24,48.97z M151.18,53.6h-4.05c0.1-0.73,0.33-1.29,0.69-1.69
			c0.36-0.39,0.83-0.59,1.4-0.59c0.62,0,1.09,0.18,1.43,0.53c0.34,0.36,0.51,0.86,0.52,1.51V53.6z M164.58,54.03
			c-0.5-0.18-1.11-0.35-1.83-0.49c-0.72-0.14-1.24-0.32-1.54-0.52c-0.31-0.2-0.46-0.46-0.46-0.78c0-0.34,0.13-0.63,0.4-0.85
			c0.27-0.22,0.65-0.33,1.14-0.33c0.57,0,0.99,0.14,1.26,0.41c0.27,0.27,0.4,0.62,0.4,1.04h2.91c0-1.04-0.41-1.89-1.24-2.55
			c-0.83-0.65-1.93-0.98-3.32-0.98c-1.29,0-2.34,0.33-3.15,0.98c-0.8,0.65-1.2,1.46-1.2,2.43c0,1.66,1.29,2.77,3.88,3.32
			c0.78,0.16,1.34,0.35,1.7,0.55c0.35,0.21,0.53,0.49,0.53,0.84c0,0.34-0.14,0.62-0.43,0.83c-0.29,0.21-0.71,0.32-1.26,0.32
			c-0.6,0-1.07-0.14-1.43-0.41c-0.36-0.28-0.55-0.67-0.57-1.19h-2.76c0,0.66,0.2,1.28,0.6,1.84c0.4,0.57,0.96,1.02,1.67,1.34
			c0.71,0.33,1.52,0.49,2.43,0.49c1.35,0,2.45-0.31,3.3-0.92c0.85-0.62,1.28-1.42,1.28-2.42C166.89,55.57,166.12,54.59,164.58,54.03
			z M182.55,57.64c-0.15-0.18-0.23-0.46-0.23-0.87v-5.46h1.86v-2.14h-1.86v-2.69h-2.91v2.69h-1.59v2.14h1.59v5.89
			c0.04,2.07,1.08,3.1,3.12,3.1c0.6,0,1.19-0.09,1.76-0.26v-2.21c-0.25,0.05-0.53,0.07-0.86,0.07
			C183,57.91,182.71,57.82,182.55,57.64z M194.02,48.97c-1.17,0-2.14,0.46-2.91,1.39v-5.78h-2.91v15.53h2.91v-7.77
			c0.38-0.66,1-0.99,1.85-0.99c0.62,0,1.07,0.15,1.34,0.45c0.27,0.3,0.4,0.76,0.4,1.39v6.92h2.91v-7
			C197.58,50.35,196.38,48.97,194.02,48.97z M211.1,52.84c0-1.23-0.39-2.18-1.18-2.86c-0.79-0.68-1.85-1.02-3.2-1.02
			c-0.89,0-1.68,0.15-2.4,0.46c-0.71,0.31-1.26,0.73-1.65,1.27c-0.39,0.54-0.58,1.13-0.58,1.76H205c0-0.41,0.14-0.73,0.42-0.97
			c0.28-0.24,0.66-0.35,1.15-0.35c0.56,0,0.96,0.15,1.22,0.45c0.26,0.3,0.39,0.71,0.39,1.21v0.63h-1.34
			c-1.62,0.01-2.85,0.32-3.71,0.94c-0.86,0.62-1.28,1.51-1.28,2.67c0,0.94,0.35,1.73,1.05,2.35c0.7,0.62,1.59,0.93,2.65,0.93
			c1.13,0,2.04-0.39,2.75-1.18c0.06,0.39,0.16,0.72,0.29,0.98h2.94v-0.17c-0.28-0.53-0.43-1.32-0.43-2.36V52.84z M208.18,57.02
			c-0.17,0.32-0.44,0.58-0.81,0.77s-0.76,0.29-1.19,0.29c-0.44,0-0.79-0.12-1.05-0.35c-0.26-0.24-0.38-0.54-0.38-0.9l0.01-0.17
			c0.09-1.01,0.87-1.52,2.32-1.52h1.09V57.02z M219.52,57.64c-0.15-0.18-0.23-0.46-0.23-0.87v-5.46h1.86v-2.14h-1.86v-2.69h-2.91
			v2.69h-1.59v2.14h1.59v5.89c0.04,2.07,1.08,3.1,3.12,3.1c0.6,0,1.19-0.09,1.76-0.26v-2.21c-0.25,0.05-0.53,0.07-0.86,0.07
			C219.97,57.91,219.67,57.82,219.52,57.64z M244.96,48.97c-1.42,0-2.51,0.56-3.27,1.67c-0.52-1.11-1.49-1.67-2.89-1.67
			c-1.32,0-2.36,0.48-3.13,1.43l-0.09-1.22h-2.73v10.94h2.91v-7.73c0.37-0.69,0.97-1.03,1.79-1.03c0.6,0,1.02,0.14,1.27,0.42
			c0.25,0.28,0.37,0.74,0.37,1.37v6.96h2.91l-0.01-7.51c0.34-0.84,0.94-1.25,1.81-1.25c0.61,0,1.04,0.14,1.28,0.43
			c0.24,0.29,0.36,0.74,0.36,1.36v6.97h2.92v-6.98c0-1.39-0.29-2.43-0.87-3.12C247.02,49.32,246.14,48.97,244.96,48.97z
			 M261.98,52.84c0-1.23-0.39-2.18-1.18-2.86c-0.79-0.68-1.85-1.02-3.2-1.02c-0.89,0-1.68,0.15-2.4,0.46
			c-0.71,0.31-1.26,0.73-1.65,1.27c-0.39,0.54-0.58,1.13-0.58,1.76h2.91c0-0.41,0.14-0.73,0.42-0.97c0.28-0.24,0.66-0.35,1.15-0.35
			c0.56,0,0.96,0.15,1.22,0.45c0.26,0.3,0.39,0.71,0.39,1.21v0.63h-1.34c-1.62,0.01-2.85,0.32-3.71,0.94
			c-0.86,0.62-1.28,1.51-1.28,2.67c0,0.94,0.35,1.73,1.05,2.35c0.7,0.62,1.59,0.93,2.65,0.93c1.13,0,2.04-0.39,2.75-1.18
			c0.06,0.39,0.16,0.72,0.29,0.98h2.94v-0.17c-0.28-0.53-0.43-1.32-0.43-2.36V52.84z M259.06,57.02c-0.17,0.32-0.44,0.58-0.81,0.77
			s-0.76,0.29-1.19,0.29c-0.44,0-0.79-0.12-1.05-0.35c-0.26-0.24-0.38-0.54-0.38-0.9l0.01-0.17c0.09-1.01,0.87-1.52,2.32-1.52h1.09
			V57.02z M270.4,57.64c-0.15-0.18-0.23-0.46-0.23-0.87v-5.46h1.86v-2.14h-1.86v-2.69h-2.91v2.69h-1.59v2.14h1.59v5.89
			c0.04,2.07,1.08,3.1,3.12,3.1c0.6,0,1.19-0.09,1.76-0.26v-2.21c-0.25,0.05-0.53,0.07-0.86,0.07
			C270.85,57.91,270.56,57.82,270.4,57.64z M279.1,52.07c0.35-0.5,0.86-0.74,1.53-0.74c0.55,0,0.99,0.18,1.33,0.53
			c0.34,0.36,0.51,0.82,0.52,1.39h2.73c-0.01-1.29-0.43-2.33-1.25-3.11c-0.82-0.78-1.91-1.17-3.28-1.17c-1.56,0-2.78,0.5-3.67,1.51
			c-0.89,1-1.34,2.35-1.34,4.03v0.19c0,1.75,0.45,3.13,1.35,4.12c0.9,0.99,2.13,1.49,3.68,1.49c0.83,0,1.59-0.17,2.28-0.51
			c0.69-0.34,1.23-0.82,1.63-1.44c0.4-0.62,0.6-1.3,0.6-2.04h-2.73c-0.01,0.49-0.19,0.89-0.52,1.18c-0.34,0.3-0.77,0.44-1.31,0.44
			c-0.7,0-1.22-0.25-1.56-0.74c-0.34-0.49-0.51-1.3-0.51-2.43v-0.3C278.58,53.37,278.76,52.57,279.1,52.07z M295.1,48.97
			c-1.17,0-2.14,0.46-2.91,1.39v-5.78h-2.91v15.53h2.91v-7.77c0.38-0.66,1-0.99,1.85-0.99c0.62,0,1.07,0.15,1.34,0.45
			c0.27,0.3,0.4,0.76,0.4,1.39v6.92h2.91v-7C298.66,50.35,297.46,48.97,295.1,48.97z"/>
	</g>
</g>
</svg>
